<svg xmlns="http://www.w3.org/2000/svg" viewBox="0 0 512 512" width="512" height="512" preserveAspectRatio="xMinYMin meet" style="width: 100%; height: 100%; transform: translate3d(0px, 0px, 0px);"><defs><clipPath id="__lottie_element_2"><rect width="512" height="512" x="0" y="0"></rect></clipPath></defs><g clip-path="url(#__lottie_element_2)"><g transform="matrix(1,0,0,1,262.54876708984375,254.90853881835938)" opacity="1" style="display: block;"><g opacity="1" transform="matrix(1,0,0,1,0,0)"><path fill="rgb(255,125,0)" fill-opacity="1" d=" M-84,2.5 C-84,2.5 -232,32.5 -232.5,32.5 C-233,32.5 -236.5,43 -236,52.5 C-235.5,62 -226,106.5 -200.5,130 C-175,153.5 -155.5,161.5 -148,159.5 C-132.5,157 -110,111.5 -103,101 C-96,90.5 -59.5,27 -59.5,27 C-59.5,27 -77,10 -71.75,14.75 C-66.5,19.5 -84,2.5 -84,2.5z"></path><path stroke-linecap="butt" stroke-linejoin="miter" fill-opacity="0" stroke-miterlimit="4" stroke="rgb(255,255,255)" stroke-opacity="1" stroke-width="2" d=" M-84,2.5 C-84,2.5 -232,32.5 -232.5,32.5 C-233,32.5 -236.5,43 -236,52.5 C-235.5,62 -226,106.5 -200.5,130 C-175,153.5 -155.5,161.5 -148,159.5 C-132.5,157 -110,111.5 -103,101 C-96,90.5 -59.5,27 -59.5,27 C-59.5,27 -77,10 -71.75,14.75 C-66.5,19.5 -84,2.5 -84,2.5z"></path></g></g><g transform="matrix(1,0,0,1,256,256)" opacity="1" style="display: block;"><g opacity="1" transform="matrix(1,0,0,1,0,0)"><path fill="rgb(0,0,0)" fill-opacity="1" d=" M36.82010269165039,-234.08290100097656 C23.790271759033203,-235.1586151123047 -15,-151 -15,-151 C-15,-151 -60,-150 -68,-149 C-69,-156 -118.82362365722656,-233.8130645751953 -144.7266387939453,-231.17637634277344 C-170.26632690429688,-227.08642578125 -178,-126 -178,-126 C-178,-126 -227,-76 -219,-9 C-219,29 -211,54 -189,69 C-267,202 -185,246 -185,246 C-185,246 55,247 113,246 C146,142 99,83 85,67 C110,47 122,35 126,-15 C130,-65 93,-105 83,-120 C82.17990112304688,-189.2698516845703 51.2212028503418,-232.62466430664062 36.82010269165039,-234.08290100097656z"></path><path stroke-linecap="butt" stroke-linejoin="miter" fill-opacity="0" stroke-miterlimit="4" stroke="rgb(255,255,255)" stroke-opacity="1" stroke-width="2" d=" M36.82010269165039,-234.08290100097656 C23.790271759033203,-235.1586151123047 -15,-151 -15,-151 C-15,-151 -60,-150 -68,-149 C-69,-156 -118.82362365722656,-233.8130645751953 -144.7266387939453,-231.17637634277344 C-170.26632690429688,-227.08642578125 -178,-126 -178,-126 C-178,-126 -227,-76 -219,-9 C-219,29 -211,54 -189,69 C-267,202 -185,246 -185,246 C-185,246 55,247 113,246 C146,142 99,83 85,67 C110,47 122,35 126,-15 C130,-65 93,-105 83,-120 C82.17990112304688,-189.2698516845703 51.2212028503418,-232.62466430664062 36.82010269165039,-234.08290100097656z"></path></g></g><g transform="matrix(1,0,0,1,256,256.75)" opacity="1" style="display: block;"><g opacity="1" transform="matrix(1,0,0,1,0,0)"><path fill="rgb(0,0,0)" fill-opacity="1" d=" M195.05357360839844,151.50584411621094 C165.0788116455078,167.80064392089844 163.15162658691406,181.92425537109375 146.91009521484375,195.2022705078125 C135.6424560546875,204.33538818359375 121.25,205 109.75,204 C49,204.75 56,244.75 56,244.75 C56,244.75 162.6450653076172,246.25067138671875 187.42425537109375,239.0646514892578 C216.82589721679688,230.48045349121094 234.97113037109375,208.39718627929688 240.7696990966797,189.9778289794922 C247.48321533203125,168.49752807617188 222.200439453125,136.59109497070312 195.05357360839844,151.50584411621094z"></path><path stroke-linecap="butt" stroke-linejoin="miter" fill-opacity="0" stroke-miterlimit="4" stroke="rgb(255,255,255)" stroke-opacity="1" stroke-width="2" d=" M195.05357360839844,151.50584411621094 C165.0788116455078,167.80064392089844 163.15162658691406,181.92425537109375 146.91009521484375,195.2022705078125 C135.6424560546875,204.33538818359375 121.25,205 109.75,204 C49,204.75 56,244.75 56,244.75 C56,244.75 162.6450653076172,246.25067138671875 187.42425537109375,239.0646514892578 C216.82589721679688,230.48045349121094 234.97113037109375,208.39718627929688 240.7696990966797,189.9778289794922 C247.48321533203125,168.49752807617188 222.200439453125,136.59109497070312 195.05357360839844,151.50584411621094z"></path></g></g><g transform="matrix(1,0,0,1,262.54876708984375,254.90853881835938)" opacity="1" style="display: block;"><g opacity="1" transform="matrix(1,0,0,1,0,0)"><path fill="rgb(0,0,0)" fill-opacity="1" d=" M-213,62.5 C-227.5,48.5 -239,60 -239,60 C-239,60 -250,70.5 -244,91.5 C-234.5,115.5 -219,119.5 -210,120.5 C-192,102 -201.74000549316406,73.37200164794922 -213,62.5z"></path><path stroke-linecap="butt" stroke-linejoin="miter" fill-opacity="0" stroke-miterlimit="4" stroke="rgb(255,255,255)" stroke-opacity="1" stroke-width="2" d=" M-213,62.5 C-227.5,48.5 -239,60 -239,60 C-239,60 -250,70.5 -244,91.5 C-234.5,115.5 -219,119.5 -210,120.5 C-192,102 -201.74000549316406,73.37200164794922 -213,62.5z"></path></g></g><g transform="matrix(1.2256760597229004,0,0,1.0924689769744873,232.10537719726562,256.2140197753906)" opacity="1" style="display: block;"><g opacity="1" transform="matrix(1,0,0,1.1741000413894653,66,8.5)"><path fill="rgb(0,0,0)" fill-opacity="1" d=" M0,-50.5 C37.52920150756836,-50.5 68,-27.87095069885254 68,0 C68,27.87095069885254 37.52920150756836,50.5 0,50.5 C-37.52920150756836,50.5 -68,27.87095069885254 -68,0 C-68,-27.87095069885254 -37.52920150756836,-50.5 0,-50.5z"></path><path stroke-linecap="butt" stroke-linejoin="miter" fill-opacity="0" stroke-miterlimit="4" stroke="rgb(255,255,255)" stroke-opacity="1" stroke-width="2" d=" M0,-50.5 C37.52920150756836,-50.5 68,-27.87095069885254 68,0 C68,27.87095069885254 37.52920150756836,50.5 0,50.5 C-37.52920150756836,50.5 -68,27.87095069885254 -68,0 C-68,-27.87095069885254 -37.52920150756836,-50.5 0,-50.5z"></path></g></g><g transform="matrix(1.3433260917663574,0,0,1.1430643796920776,22.340476989746094,256.7839660644531)" opacity="1" style="display: block;"><g opacity="1" transform="matrix(1,0,0,1.1741000413894653,66,8.5)"><path fill="rgb(0,0,0)" fill-opacity="1" d=" M0,-50.5 C37.52920150756836,-50.5 68,-27.87095069885254 68,0 C68,27.87095069885254 37.52920150756836,50.5 0,50.5 C-37.52920150756836,50.5 -68,27.87095069885254 -68,0 C-68,-27.87095069885254 -37.52920150756836,-50.5 0,-50.5z"></path><path stroke-linecap="butt" stroke-linejoin="miter" fill-opacity="0" stroke-miterlimit="4" stroke="rgb(255,255,255)" stroke-opacity="1" stroke-width="2" d=" M0,-50.5 C37.52920150756836,-50.5 68,-27.87095069885254 68,0 C68,27.87095069885254 37.52920150756836,50.5 0,50.5 C-37.52920150756836,50.5 -68,27.87095069885254 -68,0 C-68,-27.87095069885254 -37.52920150756836,-50.5 0,-50.5z"></path></g></g><g transform="matrix(1,0,0,1,256,256)" opacity="1" style="display: block;"><g opacity="1" transform="matrix(1,0,0,1,0,0)"><path fill="rgb(0,0,0)" fill-opacity="1" d=" M36.82010269165039,-234.08290100097656 C23.790271759033203,-235.1586151123047 -15,-151 -15,-151 C-15,-151 -60,-150 -68,-149 C-69,-156 -118.82362365722656,-233.8130645751953 -144.7266387939453,-231.17637634277344 C-170.26632690429688,-227.08642578125 -178,-126 -178,-126 C-178,-126 -227,-76 -219,-9 C-219,29 -211,54 -189,69 C-267,202 -185,246 -185,246 C-185,246 55,247 113,246 C146,142 99,83 85,67 C110,47 122,35 126,-15 C130,-65 93,-105 83,-120 C82.17990112304688,-189.2698516845703 51.2212028503418,-232.62466430664062 36.82010269165039,-234.08290100097656z"></path><path stroke-linecap="butt" stroke-linejoin="miter" fill-opacity="0" stroke-miterlimit="4" stroke="rgb(255,255,255)" stroke-opacity="1" stroke-width="2" d="M0 0"></path></g></g><g transform="matrix(1,0,0,1,256,256.75)" opacity="1" style="display: block;"><g opacity="1" transform="matrix(1,0,0,1,0,0)"><path fill="rgb(0,0,0)" fill-opacity="1" d=" M195.05357360839844,151.50584411621094 C165.0788116455078,167.80064392089844 163.15162658691406,181.92425537109375 146.91009521484375,195.2022705078125 C135.6424560546875,204.33538818359375 121.25,205 109.75,204 C49,204.75 56,244.75 56,244.75 C56,244.75 162.6450653076172,246.25067138671875 187.42425537109375,239.0646514892578 C216.82589721679688,230.48045349121094 234.97113037109375,208.39718627929688 240.7696990966797,189.9778289794922 C247.48321533203125,168.49752807617188 222.200439453125,136.59109497070312 195.05357360839844,151.50584411621094z"></path><path stroke-linecap="butt" stroke-linejoin="miter" fill-opacity="0" stroke-miterlimit="4" stroke="rgb(255,255,255)" stroke-opacity="1" stroke-width="2" d="M0 0"></path></g></g><g transform="matrix(1,0,0,1,256,256)" opacity="1" style="display: block;"><g opacity="1" transform="matrix(1.1948699951171875,0,0,1.1308200359344482,-111.25,-51.625)"><path fill="rgb(239,169,0)" fill-opacity="1" d=" M0,-47.625 C27.043100357055664,-47.625 49,-26.284236907958984 49,0 C49,26.284236907958984 27.043100357055664,47.625 0,47.625 C-27.043100357055664,47.625 -49,26.284236907958984 -49,0 C-49,-26.284236907958984 -27.043100357055664,-47.625 0,-47.625z"></path><path stroke-linecap="butt" stroke-linejoin="miter" fill-opacity="0" stroke-miterlimit="4" stroke="rgb(255,255,255)" stroke-opacity="1" stroke-width="2" d="M0 0"></path></g></g><g transform="matrix(1,0,0,1,256,256)" opacity="1" style="display: block;"><g opacity="1" transform="matrix(1.098620057106018,0,0,1.0429400205612183,-99.25,-52.5)"><path fill="rgb(0,0,0)" fill-opacity="1" d=" M0,-40.75 C22.489925384521484,-40.75 40.75,-22.489925384521484 40.75,0 C40.75,22.489925384521484 22.489925384521484,40.75 0,40.75 C-22.489925384521484,40.75 -40.75,22.489925384521484 -40.75,0 C-40.75,-22.489925384521484 -22.489925384521484,-40.75 0,-40.75z"></path><path stroke-linecap="butt" stroke-linejoin="miter" fill-opacity="0" stroke-miterlimit="4" stroke="rgb(255,255,255)" stroke-opacity="1" stroke-width="2" d="M0 0"></path></g></g><g transform="matrix(1,0,0,1,251,256)" opacity="1" style="display: block;"><g opacity="1" transform="matrix(1,0,0,0.8449599742889404,-85.625,-80.375)"><path fill="rgb(255,255,255)" fill-opacity="1" d=" M0,-16.375 C9.037362098693848,-16.375 16.375,-9.037362098693848 16.375,0 C16.375,9.037362098693848 9.037362098693848,16.375 0,16.375 C-9.037362098693848,16.375 -16.375,9.037362098693848 -16.375,0 C-16.375,-9.037362098693848 -9.037362098693848,-16.375 0,-16.375z"></path><path stroke-linecap="butt" stroke-linejoin="miter" fill-opacity="0" stroke-miterlimit="4" stroke="rgb(255,255,255)" stroke-opacity="1" stroke-width="2" d="M0 0"></path></g><g opacity="1" transform="matrix(1,0,0,1,-71,-32.125)"><path fill="rgb(255,255,255)" fill-opacity="1" d=" M0,-6.625 C4.55317497253418,-6.625 8.25,-3.6563374996185303 8.25,0 C8.25,3.6563374996185303 4.55317497253418,6.625 0,6.625 C-4.55317497253418,6.625 -8.25,3.6563374996185303 -8.25,0 C-8.25,-3.6563374996185303 -4.55317497253418,-6.625 0,-6.625z"></path><path stroke-linecap="butt" stroke-linejoin="miter" fill-opacity="0" stroke-miterlimit="4" stroke="rgb(255,255,255)" stroke-opacity="1" stroke-width="2" d="M0 0"></path></g><g opacity="1" transform="matrix(1,0,0,1,-144,-58.5)"><path fill="rgb(255,255,255)" fill-opacity="1" d=" M0,-3.25 C2.3455750942230225,-3.25 4.25,-1.7936749458312988 4.25,0 C4.25,1.7936749458312988 2.3455750942230225,3.25 0,3.25 C-2.3455750942230225,3.25 -4.25,1.7936749458312988 -4.25,0 C-4.25,-1.7936749458312988 -2.3455750942230225,-3.25 0,-3.25z"></path><path stroke-linecap="butt" stroke-linejoin="miter" fill-opacity="0" stroke-miterlimit="4" stroke="rgb(255,255,255)" stroke-opacity="1" stroke-width="2" d="M0 0"></path></g></g><g transform="matrix(1,0,0,1,399,256)" opacity="1" style="display: block;"><g opacity="1" transform="matrix(1.1948699951171875,0,0,1.1308200359344482,-111.25,-51.625)"><path fill="rgb(239,169,0)" fill-opacity="1" d=" M0,-47.625 C27.043100357055664,-47.625 49,-26.284236907958984 49,0 C49,26.284236907958984 27.043100357055664,47.625 0,47.625 C-27.043100357055664,47.625 -49,26.284236907958984 -49,0 C-49,-26.284236907958984 -27.043100357055664,-47.625 0,-47.625z"></path><path stroke-linecap="butt" stroke-linejoin="miter" fill-opacity="0" stroke-miterlimit="4" stroke="rgb(255,255,255)" stroke-opacity="1" stroke-width="2" d="M0 0"></path></g></g><g transform="matrix(1,0,0,1,375,256)" opacity="1" style="display: block;"><g opacity="1" transform="matrix(1.098620057106018,0,0,1.0429400205612183,-99.25,-52.5)"><path fill="rgb(0,0,0)" fill-opacity="1" d=" M0,-40.75 C22.489925384521484,-40.75 40.75,-22.489925384521484 40.75,0 C40.75,22.489925384521484 22.489925384521484,40.75 0,40.75 C-22.489925384521484,40.75 -40.75,22.489925384521484 -40.75,0 C-40.75,-22.489925384521484 -22.489925384521484,-40.75 0,-40.75z"></path><path stroke-linecap="butt" stroke-linejoin="miter" fill-opacity="0" stroke-miterlimit="4" stroke="rgb(255,255,255)" stroke-opacity="1" stroke-width="2" d="M0 0"></path></g></g><g transform="matrix(1,0,0,1,393,256)" opacity="1" style="display: block;"><g opacity="1" transform="matrix(1,0,0,0.8449599742889404,-85.625,-80.375)"><path fill="rgb(255,255,255)" fill-opacity="1" d=" M0,-16.375 C9.037362098693848,-16.375 16.375,-9.037362098693848 16.375,0 C16.375,9.037362098693848 9.037362098693848,16.375 0,16.375 C-9.037362098693848,16.375 -16.375,9.037362098693848 -16.375,0 C-16.375,-9.037362098693848 -9.037362098693848,-16.375 0,-16.375z"></path><path stroke-linecap="butt" stroke-linejoin="miter" fill-opacity="0" stroke-miterlimit="4" stroke="rgb(255,255,255)" stroke-opacity="1" stroke-width="2" d="M0 0"></path></g><g opacity="1" transform="matrix(1,0,0,1,-67,-56.625)"><path fill="rgb(255,255,255)" fill-opacity="1" d=" M0,-6.625 C4.55317497253418,-6.625 8.25,-3.6563374996185303 8.25,0 C8.25,3.6563374996185303 4.55317497253418,6.625 0,6.625 C-4.55317497253418,6.625 -8.25,3.6563374996185303 -8.25,0 C-8.25,-3.6563374996185303 -4.55317497253418,-6.625 0,-6.625z"></path><path stroke-linecap="butt" stroke-linejoin="miter" fill-opacity="0" stroke-miterlimit="4" stroke="rgb(255,255,255)" stroke-opacity="1" stroke-width="2" d="M0 0"></path></g><g opacity="1" transform="matrix(1,0,0,1,-150.5,-42.5)"><path fill="rgb(255,255,255)" fill-opacity="1" d=" M0,-3.25 C2.3455750942230225,-3.25 4.25,-1.7936749458312988 4.25,0 C4.25,1.7936749458312988 2.3455750942230225,3.25 0,3.25 C-2.3455750942230225,3.25 -4.25,1.7936749458312988 -4.25,0 C-4.25,-1.7936749458312988 -2.3455750942230225,-3.25 0,-3.25z"></path><path stroke-linecap="butt" stroke-linejoin="miter" fill-opacity="0" stroke-miterlimit="4" stroke="rgb(255,255,255)" stroke-opacity="1" stroke-width="2" d="M0 0"></path></g></g><g transform="matrix(1.0700000524520874,0,0,0,273.7875061035156,148.375)" opacity="1" style="display: block;"><g opacity="1" transform="matrix(1.1948699951171875,0,0,1.1308200359344482,-111.25,-51.625)"><path fill="rgb(0,0,0)" fill-opacity="1" d=" M0,-47.625 C27.043100357055664,-47.625 49,-26.284236907958984 49,0 C49,26.284236907958984 27.043100357055664,47.625 0,47.625 C-27.043100357055664,47.625 -49,26.284236907958984 -49,0 C-49,-26.284236907958984 -27.043100357055664,-47.625 0,-47.625z"></path><path stroke-linecap="butt" stroke-linejoin="miter" fill-opacity="0" stroke-miterlimit="4" stroke="rgb(255,255,255)" stroke-opacity="1" stroke-width="2" d="M0 0"></path></g></g><g transform="matrix(1.0700000524520874,0,0,0,396.7879638671875,146.375)" opacity="1" style="display: block;"><g opacity="1" transform="matrix(1.1948699951171875,0,0,1.1308200359344482,-111.25,-51.625)"><path fill="rgb(0,0,0)" fill-opacity="1" d=" M0,-47.625 C27.043100357055664,-47.625 49,-26.284236907958984 49,0 C49,26.284236907958984 27.043100357055664,47.625 0,47.625 C-27.043100357055664,47.625 -49,26.284236907958984 -49,0 C-49,-26.284236907958984 -27.043100357055664,-47.625 0,-47.625z"></path><path stroke-linecap="butt" stroke-linejoin="miter" fill-opacity="0" stroke-miterlimit="4" stroke="rgb(255,255,255)" stroke-opacity="1" stroke-width="2" d="M0 0"></path></g></g><g transform="matrix(1.2256760597229004,0,0,1.0924689769744873,232.10537719726562,256.2140197753906)" opacity="1" style="display: block;"><g opacity="1" transform="matrix(1,0,0,1.1741000413894653,66,8.5)"><path fill="rgb(0,0,0)" fill-opacity="1" d=" M0,-50.5 C37.52920150756836,-50.5 68,-27.87095069885254 68,0 C68,27.87095069885254 37.52920150756836,50.5 0,50.5 C-37.52920150756836,50.5 -68,27.87095069885254 -68,0 C-68,-27.87095069885254 -37.52920150756836,-50.5 0,-50.5z"></path><path stroke-linecap="butt" stroke-linejoin="miter" fill-opacity="0" stroke-miterlimit="4" stroke="rgb(255,255,255)" stroke-opacity="1" stroke-width="2" d="M0 0"></path></g></g><g transform="matrix(1.3433260917663574,0,0,1.1430643796920776,22.340476989746094,256.7839660644531)" opacity="1" style="display: block;"><g opacity="1" transform="matrix(1,0,0,1.1741000413894653,66,8.5)"><path fill="rgb(0,0,0)" fill-opacity="1" d=" M0,-50.5 C37.52920150756836,-50.5 68,-27.87095069885254 68,0 C68,27.87095069885254 37.52920150756836,50.5 0,50.5 C-37.52920150756836,50.5 -68,27.87095069885254 -68,0 C-68,-27.87095069885254 -37.52920150756836,-50.5 0,-50.5z"></path><path stroke-linecap="butt" stroke-linejoin="miter" fill-opacity="0" stroke-miterlimit="4" stroke="rgb(255,255,255)" stroke-opacity="1" stroke-width="2" d="M0 0"></path></g></g><g transform="matrix(1,0,0,1,262.54876708984375,254.90853881835938)" opacity="1" style="display: block;"><g opacity="1" transform="matrix(1,0,0,1,0,0)"><path fill="rgb(255,125,0)" fill-opacity="1" d=" M-84,2.5 C-84,2.5 -232,32.5 -232.5,32.5 C-233,32.5 -236.5,43 -236,52.5 C-235.5,62 -226,106.5 -200.5,130 C-175,153.5 -155.5,161.5 -148,159.5 C-132.5,157 -110,111.5 -103,101 C-96,90.5 -59.5,27 -59.5,27 C-59.5,27 -77,10 -71.75,14.75 C-66.5,19.5 -84,2.5 -84,2.5z"></path><path stroke-linecap="butt" stroke-linejoin="miter" fill-opacity="0" stroke-miterlimit="4" stroke="rgb(255,255,255)" stroke-opacity="1" stroke-width="2" d="M0 0"></path></g></g><g transform="matrix(1,0,0,1,262.54876708984375,254.90853881835938)" opacity="1" style="display: block;"><g opacity="1" transform="matrix(1,0,0,1,0,0)"><path fill="rgb(255,203,0)" fill-opacity="1" d=" M-84,2.5 C-84,2.5 -222,31 -222.5,31 C-223,31 -232,35.5 -228,49 C-225.2969970703125,58.12099838256836 -212.8070068359375,88.28099822998047 -185,109 C-159.5,128 -150,129.5 -142.5,127.5 C-125.5,131 -118.5,117 -107,99 C-100.20600128173828,88.36599731445312 -64,26.5 -64,26.5 C-64,26.5 -77,10 -71.75,14.75 C-66.5,19.5 -84,2.5 -84,2.5z"></path><path stroke-linecap="butt" stroke-linejoin="miter" fill-opacity="0" stroke-miterlimit="4" stroke="rgb(255,255,255)" stroke-opacity="1" stroke-width="2" d="M0 0"></path></g></g><g transform="matrix(1,0,0,1,262.54876708984375,254.90853881835938)" opacity="1" style="display: block;"><g opacity="1" transform="matrix(1,0,0,1,0,0)"><path fill="rgb(255,225,125)" fill-opacity="1" d=" M-84,2.5 C-84,2.5 -198,26.5 -198.5,26.5 C-199,26.5 -200,36.5 -189.5,46.5 C-182.61099243164062,53.06100082397461 -200.5,62 -168.5,77.5 C-160.70199584960938,81.2770004272461 -156.52099609375,89.2229995727539 -153.14100646972656,92.47799682617188 C-136.5,108.5 -127,92 -107.5,64 C-88,36 -71.75,14.75 -71.75,14.75 C-71.75,14.75 -84,2.5 -84,2.5z"></path><path stroke-linecap="butt" stroke-linejoin="miter" fill-opacity="0" stroke-miterlimit="4" stroke="rgb(255,255,255)" stroke-opacity="1" stroke-width="2" d="M0 0"></path></g></g><g transform="matrix(1,0,0,1,262.54876708984375,254.90853881835938)" opacity="1" style="display: block;"><g opacity="1" transform="matrix(1,0,0,1,0,0)"><path fill="rgb(255,161,0)" fill-opacity="1" d=" M-201.75,26.5 C-201.75,26.5 -230.25,29.5 -233.25,34.25 C-237.2899932861328,40.64699935913086 -219.5,86 -198,104 C-176.5,122 -153,134.5 -141,127 C-151.17300415039062,121.09300231933594 -158.62399291992188,113.15899658203125 -168.03700256347656,105.04299926757812 C-172.96600341796875,100.79399871826172 -179.1580047607422,99.21700286865234 -185,92 C-189.04400634765625,87.00499725341797 -188.41200256347656,74.98600006103516 -191.7740020751953,68.13899993896484 C-194.8990020751953,61.7760009765625 -200.12100219726562,57.62799835205078 -201.2760009765625,51.65800094604492 C-204.10299682617188,37.04600143432617 -201.75,26.5 -201.75,26.5z"></path><path stroke-linecap="butt" stroke-linejoin="miter" fill-opacity="0" stroke-miterlimit="4" stroke="rgb(255,255,255)" stroke-opacity="1" stroke-width="2" d="M0 0"></path></g></g><g transform="matrix(1,0,0,1,262.54876708984375,254.90853881835938)" opacity="1" style="display: block;"><g opacity="1" transform="matrix(0.9406558871269226,-0.33936187624931335,0.33936187624931335,0.9406558871269226,-94.25,29.5)"><path fill="rgb(255,112,0)" fill-opacity="1" d=" M0,-9 C7.3126749992370605,-9 13.25,-4.967100143432617 13.25,0 C13.25,4.967100143432617 7.3126749992370605,9 0,9 C-7.3126749992370605,9 -13.25,4.967100143432617 -13.25,0 C-13.25,-4.967100143432617 -7.3126749992370605,-9 0,-9z"></path><path stroke-linecap="butt" stroke-linejoin="miter" fill-opacity="0" stroke-miterlimit="4" stroke="rgb(255,255,255)" stroke-opacity="1" stroke-width="2" d="M0 0"></path></g><g opacity="1" transform="matrix(0.7790754437446594,-0.6269301772117615,0.6269301772117615,0.7790754437446594,-133.25,92)"><path fill="rgb(255,112,0)" fill-opacity="1" d=" M0,-9 C7.3126749992370605,-9 13.25,-4.967100143432617 13.25,0 C13.25,4.967100143432617 7.3126749992370605,9 0,9 C-7.3126749992370605,9 -13.25,4.967100143432617 -13.25,0 C-13.25,-4.967100143432617 -7.3126749992370605,-9 0,-9z"></path><path stroke-linecap="butt" stroke-linejoin="miter" fill-opacity="0" stroke-miterlimit="4" stroke="rgb(255,255,255)" stroke-opacity="1" stroke-width="2" d="M0 0"></path></g><g opacity="1" transform="matrix(1,0,0,1,0,0)"><path fill="rgb(255,112,0)" fill-opacity="1" d=" M-111.875,8.125 C-111.875,8.125 -135.5,12.625 -135.5,12.625 C-135.5,12.625 -132,24.375 -117.625,18.75 C-110.375,16.25 -111.875,8.125 -111.875,8.125z"></path><path stroke-linecap="butt" stroke-linejoin="miter" fill-opacity="0" stroke-miterlimit="4" stroke="rgb(255,255,255)" stroke-opacity="1" stroke-width="2" d="M0 0"></path></g></g><g transform="matrix(1,0,0,1,262.54876708984375,254.90853881835938)" opacity="1" style="display: block;"><g opacity="1" transform="matrix(0.7702260613441467,-0.4479404091835022,0.4494938552379608,0.7728971838951111,-147.5,50.5)"><path fill="rgb(255,82,79)" fill-opacity="1" d=" M0,-20.25 C15.039275169372559,-20.25 27.25,-11.17597484588623 27.25,0 C27.25,11.17597484588623 15.039275169372559,20.25 0,20.25 C-15.039275169372559,20.25 -27.25,11.17597484588623 -27.25,0 C-27.25,-11.17597484588623 -15.039275169372559,-20.25 0,-20.25z"></path><path stroke-linecap="butt" stroke-linejoin="miter" fill-opacity="0" stroke-miterlimit="4" stroke="rgb(255,255,255)" stroke-opacity="1" stroke-width="2" d="M0 0"></path></g></g><g transform="matrix(1,0,0,1,262.54876708984375,254.90853881835938)" opacity="1" style="display: block;"><g opacity="1" transform="matrix(1,0,0,1,0,0)"><path fill="rgb(245,43,43)" fill-opacity="1" d=" M-126.25,39.75 C-126.5,41 -138,53.5 -149.5,53.75 C-167.11000061035156,54.132999420166016 -165,41.5 -165,41.5 C-165,41.5 -169.25,48 -169.75,55 C-170.25,62 -165.75,73.75 -147.25,70.25 C-118.75,63.5 -126,38.5 -126.25,39.75z"></path><path stroke-linecap="butt" stroke-linejoin="miter" fill-opacity="0" stroke-miterlimit="4" stroke="rgb(255,255,255)" stroke-opacity="1" stroke-width="2" d="M0 0"></path></g></g><g transform="matrix(1.033959984779358,0,0,1.014739990234375,252.09056091308594,263.7890625)" opacity="1" style="display: block;"><g opacity="1" transform="matrix(1.0322099924087524,0,0,0.9534100294113159,-49.582000732421875,-1.1959999799728394)"><path fill="rgb(0,0,0)" fill-opacity="1" d=" M0,-22.5 C16.832950592041016,-22.5 30.5,-12.417750358581543 30.5,0 C30.5,12.417750358581543 16.832950592041016,22.5 0,22.5 C-16.832950592041016,22.5 -30.5,12.417750358581543 -30.5,0 C-30.5,-12.417750358581543 -16.832950592041016,-22.5 0,-22.5z"></path><path stroke-linecap="butt" stroke-linejoin="miter" fill-opacity="0" stroke-miterlimit="4" stroke="rgb(255,255,255)" stroke-opacity="1" stroke-width="2" d="M0 0"></path></g></g><g transform="matrix(1,0,0,1,256,256)" opacity="1" style="display: block;"><g opacity="1" transform="matrix(1,0,0,1,0,0)"><path fill="rgb(255,80,120)" fill-opacity="1" d=" M-39.1879997253418,-13.812999725341797 C-39.1879997253418,-13.812999725341797 -46.75,-14.260000228881836 -46.75,-11.25 C-46.6870002746582,-8.062000274658203 -41.25,-6.75 -39.75,-6.75 C-38.25,-6.75 -32.5629997253418,-7.686999797821045 -31.75,-10.5 C-30.75,-14.25 -39.1879997253418,-13.812999725341797 -39.1879997253418,-13.812999725341797z"></path><path stroke-linecap="butt" stroke-linejoin="miter" fill-opacity="0" stroke-miterlimit="4" stroke="rgb(255,255,255)" stroke-opacity="1" stroke-width="2" d="M0 0"></path></g></g><g transform="matrix(1,0,0,1,262.54876708984375,254.90853881835938)" opacity="1" style="display: block;"><g opacity="1" transform="matrix(1,0,0,1,0,0)"><path fill="rgb(0,0,0)" fill-opacity="1" d=" M-213,62.5 C-227.5,48.5 -239,60 -239,60 C-239,60 -250,70.5 -244,91.5 C-234.5,115.5 -219,119.5 -210,120.5 C-192,102 -201.74000549316406,73.37200164794922 -213,62.5z"></path><path stroke-linecap="butt" stroke-linejoin="miter" fill-opacity="0" stroke-miterlimit="4" stroke="rgb(255,255,255)" stroke-opacity="1" stroke-width="2" d="M0 0"></path></g></g><g transform="matrix(1,0,0,1,262.54876708984375,254.90853881835938)" opacity="1" style="display: block;"><g opacity="1" transform="matrix(1,0,0,1,0,0)"><path fill="rgb(0,0,0)" fill-opacity="1" d=" M-115.5,53.5 C-134,67 -133,99.5 -101.5,112.5 C-70,125.5 -29.5,137.5 -23.5,118 C-9,84 -59,61.5 -59,61.5 C-59,61.5 -97,40 -115.5,53.5z"></path><path stroke-linecap="butt" stroke-linejoin="miter" fill-opacity="0" stroke-miterlimit="4" stroke="rgb(255,255,255)" stroke-opacity="1" stroke-width="2" d="M0 0"></path></g></g><g transform="matrix(1,0,0,1,256,256)" opacity="1" style="display: block;"><g opacity="1" transform="matrix(1,0,0,1,0,0)"><path fill="rgb(238,113,91)" fill-opacity="1" d=" M-142.58995056152344,-195.67637634277344 C-148.2698516845703,-191.58642578125 -155,-157.5 -154.5,-145 C-154,-132.5 -155,-128 -140,-133 C-125,-138 -100,-141.5 -97,-142.5 C-94,-143.5 -102.34151458740234,-162.6436767578125 -111.91004943847656,-175.76632690429688 C-121.456787109375,-188.8562774658203 -136.91004943847656,-199.76632690429688 -142.58995056152344,-195.67637634277344z"></path><path fill="rgb(238,113,91)" fill-opacity="1" d=" M-142.58995056152344,-195.67637634277344 C-148.2698516845703,-191.58642578125 -155,-157.5 -154.5,-145 C-154,-132.5 -155,-128 -140,-133 C-125,-138 -100,-141.5 -97,-142.5 C-94,-143.5 -102.34151458740234,-162.6436767578125 -111.91004943847656,-175.76632690429688 C-121.456787109375,-188.8562774658203 -136.91004943847656,-199.76632690429688 -142.58995056152344,-195.67637634277344z"></path><path stroke-linecap="butt" stroke-linejoin="miter" fill-opacity="0" stroke-miterlimit="4" stroke="rgb(255,255,255)" stroke-opacity="1" stroke-width="2" d="M0 0"></path></g></g><g transform="matrix(-1,0,0,1,170.11798095703125,256)" opacity="1" style="display: block;"><g opacity="1" transform="matrix(1,0,0,1,0,0)"><path fill="rgb(238,113,91)" fill-opacity="1" d=" M-129,-202.76632690429688 C-136.41146850585938,-198.67637634277344 -145.88299560546875,-175.5 -153.5,-149.5 C-157.01699829101562,-137.4949951171875 -159.5,-129 -144.5,-134 C-129.5,-139 -102,-146.5 -99,-147.5 C-96,-148.5 -101.86961364746094,-163.63316345214844 -106.54673767089844,-175.45326232910156 C-111.23697662353516,-187.29605102539062 -121.58853912353516,-206.8562774658203 -129,-202.76632690429688z"></path><path fill="rgb(238,113,91)" fill-opacity="1" d=" M-129,-202.76632690429688 C-136.41146850585938,-198.67637634277344 -145.88299560546875,-175.5 -153.5,-149.5 C-157.01699829101562,-137.4949951171875 -159.5,-129 -144.5,-134 C-129.5,-139 -102,-146.5 -99,-147.5 C-96,-148.5 -101.86961364746094,-163.63316345214844 -106.54673767089844,-175.45326232910156 C-111.23697662353516,-187.29605102539062 -121.58853912353516,-206.8562774658203 -129,-202.76632690429688z"></path><path stroke-linecap="butt" stroke-linejoin="miter" fill-opacity="0" stroke-miterlimit="4" stroke="rgb(255,255,255)" stroke-opacity="1" stroke-width="2" d="M0 0"></path></g></g></g></svg>